<svg xmlns="http://www.w3.org/2000/svg" xmlns:xlink="http://www.w3.org/1999/xlink" width="346" height="252" viewBox="0 0 346 252">
    <defs>
        <rect id="b" width="229" height="152" x="43" y="37" rx="5"/>
        <filter id="a" width="165.9%" height="199.3%" x="-33%" y="-49%" filterUnits="objectBoundingBox">
            <feOffset dy="1" in="SourceAlpha" result="shadowOffsetOuter1"/>
            <feGaussianBlur in="shadowOffsetOuter1" result="shadowBlurOuter1" stdDeviation="25"/>
            <feColorMatrix in="shadowBlurOuter1" values="0 0 0 0 0 0 0 0 0 0 0 0 0 0 0 0 0 0 0.0759396853 0"/>
        </filter>
    </defs>
    <g fill="none" fill-rule="evenodd" transform="translate(7 12)">
        <rect width="58" height="48" fill="#FD696E" opacity=".098" rx="5"/>
        <use fill="#000" filter="url(#a)" xlink:href="#b"/>
        <use fill="#FFF" xlink:href="#b"/>
        <path fill="#87C6CC" d="M58 103h24v75H58zM88 120h24v58H88zM118 113h24v65h-24zM148 94h24v84h-24zM179 73h24v105h-24zM209 130h24v48h-24zM239 140h24v38h-24z" opacity=".162"/>
        <rect width="50" height="48" x="247" y="11" fill="#5ECC95" rx="5"/>
        <text fill="#FFF" font-family="ProximaNova-Bold, Proxima Nova" font-size="16" font-weight="bold">
            <tspan x="263" y="40">+$</tspan>
        </text>
        <g fill="#FF7381">
            <path d="M20.005 23.657a1.32 1.32 0 0 1-.938-2.25 1.357 1.357 0 0 1 1.868 0c.25.248.391.586.39.938a1.125 1.125 0 0 0 2.25 0 3.525 3.525 0 0 0-2.498-3.39l-.045-.75a1.125 1.125 0 0 0-2.25 0v.818a3.562 3.562 0 0 0 1.215 6.915 1.59 1.59 0 1 1-1.582 1.432 1.13 1.13 0 0 0-2.25-.225 3.795 3.795 0 0 0 2.602 4.012v1.298a1.125 1.125 0 0 0 2.25 0V31.21a3.795 3.795 0 0 0 1.688-.968 3.84 3.84 0 0 0-2.715-6.562l.015-.022zM41.95 18.152a3.915 3.915 0 0 0 1.027-2.602c0-3.045-3.472-5.25-8.25-5.25-4.777 0-8.25 2.205-8.25 5.25.003.974.35 1.915.983 2.655a3.997 3.997 0 0 0-.982 2.595c.002.974.35 1.915.982 2.655a3.997 3.997 0 0 0-.982 2.595c.002.974.35 1.915.982 2.655a3.997 3.997 0 0 0-.982 2.595c0 3.045 3.285 5.25 8.062 5.25 4.778 0 8.438-2.205 8.438-5.25a4.012 4.012 0 0 0-1.028-2.647 3.915 3.915 0 0 0 1.027-2.603 4.012 4.012 0 0 0-1.027-2.647 3.915 3.915 0 0 0 1.027-2.603 4.012 4.012 0 0 0-1.027-2.647zm-1.223 7.898c0 1.657-2.872 3-6.187 3-3.315 0-5.812-1.343-5.812-3 .014-.442.19-.864.495-1.185a11.19 11.19 0 0 0 5.317 1.185 11.948 11.948 0 0 0 5.618-1.267c.346.332.55.787.57 1.267zM34.54 20.8a11.948 11.948 0 0 0 5.618-1.268c.346.333.55.788.57 1.268 0 1.657-2.873 3-6.188 3-3.315 0-5.812-1.343-5.812-3 .014-.442.19-.864.495-1.185A11.19 11.19 0 0 0 34.54 20.8zm.188-8.25c3.315 0 6 1.342 6 3 0 1.657-2.873 3-6.188 3-3.315 0-5.812-1.343-5.812-3s2.685-3 6-3zM34.54 34.3c-3.315 0-5.812-1.343-5.812-3 .014-.442.19-.864.495-1.185A11.19 11.19 0 0 0 34.54 31.3a11.948 11.948 0 0 0 5.618-1.268c.346.333.55.788.57 1.268 0 1.657-2.873 3-6.188 3z"/>
        </g>
        <rect width="136" height="48" x="203" y="154" fill="#FCD588" rx="5"/>
        <text fill="#FFF" font-family="ProximaNova-Bold, Proxima Nova" font-size="16" font-weight="bold">
            <tspan x="222" y="183">Lorem ipsum </tspan>
        </text>
    </g>
</svg>
