<svg xmlns="http://www.w3.org/2000/svg" width="445" height="389" viewBox="0 0 445 389">
    <g fill="none" fill-rule="evenodd">
        <path fill="#B4CCE9" fill-rule="nonzero" d="M4.38 104.343l-24.36 71.067h-110.243l.802-3.662 44.579-1.386L-64.3 104.3z"/>
        <g fill-rule="nonzero">
            <path fill="#AD9380" d="M46.681 248.297L9.218 376.737H4.944l28.743-128.874zM114.406 250.03l28.31 124.757h-5.012l-37.919-124.8zM80.978 247.863l-4.36 128.527H70.63l-2.625-128.028z"/>
            <path fill="#AD9380" d="M115.664 300.817L30.13 298.13l-.564 8.84 92.52 3.553z"/>
            <path fill="#00143A" d="M114.406 250.03l1.302 5.763h-14.144l-1.779-5.806zM80.912 249.553l-.195 6.24h-12.56l-.152-7.431zM79.22 299.668l-.303 9.209h5.445l2.104-8.992-8.677-.217M69.047 299.343v9.144l-4.122-.152-1.193-9.165zM46.681 248.297l-1.345 4.593H32.56l1.128-5.027z" opacity=".15"/>
            <path fill="#1F3443" d="M122.085 249.987H19.218c-6.508 0-20.478-17.117 55.295-15.145 71.152 1.82 47.572 15.145 47.572 15.145z"/>
        </g>
        <g fill-rule="nonzero">
            <path fill="#00143A" d="M97.312 53.968c3.45.39 7.007.477 10.326-.541 3.319-1.019 6.4-3.294 7.68-6.5 1.28-3.229.39-7.367-2.539-9.252-1.388-.888-3.232-1.387-3.861-2.903-.716-1.69.52-3.489 1.323-5.157 2.126-4.398 1.063-10.118-2.516-13.433-3.58-3.337-9.372-3.987-13.602-1.539C93.473 7.06 86.51.56 78.895.43 71.281.3 64.101 6.562 63.189 14.102c-.26 2.231-.086 4.615-1.214 6.543-1.28 2.21-3.927 3.207-5.706 5.027-3.47 3.553-3.015 9.381-1.431 14.105 1.583 4.723 4.1 9.316 3.948 14.3"/>
            <path fill="#F6BA99" d="M83.776 86.078c-.39-2.665.954-13.845.954-13.845s10.261-.823 11.129-10.941c.868-10.119.802-33.497.802-33.497L78.244 18.24 59.675 33.277l-.412 50.7 24.513 2.101z"/>
            <g fill="#00143A">
                <path d="M94.21 44.782a1.286 1.286 0 0 1-1.323 1.256 1.286 1.286 0 0 1-1.258-1.321 1.286 1.286 0 0 1 1.323-1.257c.716.022 1.28.607 1.258 1.322zM95.512 43.395c-.174.173-1.107-.672-2.517-.78-1.388-.13-2.45.542-2.603.347-.065-.087.109-.39.586-.694.455-.303 1.236-.563 2.104-.498.868.065 1.584.477 1.974.845.412.39.542.715.456.78z"/>
            </g>
            <g fill="#00143A">
                <path d="M79.177 44.413a1.286 1.286 0 0 1-1.323 1.257 1.286 1.286 0 0 1-1.258-1.322 1.286 1.286 0 0 1 1.323-1.256c.716.021 1.28.606 1.258 1.321zM80.023 43.027c-.173.173-1.106-.672-2.516-.78-1.389-.13-2.452.541-2.603.346-.066-.086.108-.39.585-.693.456-.303 1.237-.563 2.104-.498.868.065 1.584.476 1.975.845.39.368.52.715.455.78z"/>
            </g>
            <path fill="#00143A" d="M84.774 54.943c0 .087.89.152 2.3.174.173 0 .368.021.607-.044a.82.82 0 0 0 .607-.498c.217-.542 0-1.04-.108-1.473a175.53 175.53 0 0 0-.846-2.925c-1.237-4.139-2.365-7.475-2.517-7.432-.152.043.716 3.445 1.93 7.605.305 1.018.608 1.993.89 2.925.152.455.282.867.174 1.127-.065.238-.412.303-.781.303-1.388.065-2.256.152-2.256.238z"/>
            <path fill="#F2957E" d="M78.049 55.463c-.065 1.149-1.866 1.95-4.013 1.929-2.148 0-3.927-.802-3.97-1.95-.043-1.149 1.757-2.232 4.035-2.21 2.234 0 4.013 1.083 3.948 2.231z" opacity=".33"/>
            <path fill="#F3F0EB" d="M79.936 56.07c-.086-.108 4.035 2.492 6.877 2.557 0 0-1.822 2.491-4.664 1.191-2.95-1.321-2.213-3.748-2.213-3.748z"/>
            <path fill="#F2957E" d="M84.73 72.233s-6.833-.086-13.319-4.853c0 0 2.863 7.518 13.037 7.345l.282-2.492z"/>
            <path fill="#00143A" d="M101.239 30.85c-3.19 2.968-8.179 3.38-12.257 1.863-4.078-1.516-7.354-4.636-10.022-8.081-3.492 3.488-8.85 4.983-13.645 3.856-.737 9.23-1.453 18.46-2.19 27.69-1.324.217-3.688-.303-4.925-.866-1.193-6.392-1.41-12.437-2.603-18.829-.434-2.318-.846-4.788.087-6.955.998-2.318 3.297-3.748 5.336-5.243 2.538-1.842 4.838-4.008 7.42-5.785 2.58-1.798 5.487-3.25 8.633-3.488 3.189-.239 6.312.823 9.328 1.863 3.449 1.192 6.963 2.405 9.762 4.723 2.798 2.319 4.772 6.002 4.034 9.555"/>
            <path fill="#F6BA99" d="M59.675 42.637c-1.041-.412-2.126-.824-3.254-.867-1.128-.022-2.343.39-2.928 1.365-.434.715-.477 1.603-.282 2.427.325 1.321 1.258 2.47 2.473 3.033a4.611 4.611 0 0 0 3.926 0"/>
            <path fill="#00143A" d="M74.123 40.448c-.174-.021-.282.694.282 1.279s1.28.52 1.258.346c.022-.173-.456-.346-.825-.758-.39-.39-.542-.867-.715-.867z"/>
            <path fill="#AD813A" d="M53.688 47.295c-.022-.043-.607.303-1.67.91-1.042.607-2.603 1.387-4.404 2.578l-.152.109.065.195c.52 1.278 1.215 2.686 1.996 4.181l1.215 2.297c.412.78.868 1.647 1.432 2.405l.151.195.217-.087c.304-.13.651-.281.998-.433 2.82-1.148 5.272-2.643 7.44-3.748l.24-.13-.109-.239c-1.28-2.578-2.148-4.831-2.842-6.413-.672-1.56-1.106-2.448-1.171-2.427-.065.022.282.932.868 2.535.585 1.604 1.388 3.9 2.646 6.522l.13-.347c-2.234 1.084-4.664 2.535-7.462 3.662-.347.152-.673.303-.998.433l.369.109c-.564-.759-.976-1.539-1.41-2.319-.434-.78-.846-1.56-1.237-2.296-.802-1.474-1.497-2.839-2.06-4.095l-.087.281c1.735-1.191 3.254-2.058 4.273-2.73 1.063-.693 1.584-1.105 1.562-1.148z"/>
        </g>
        <g fill-rule="nonzero">
            <path fill="#F3A28D" d="M77.442 200.522s72.345-4.55 81.456 11.7c9.111 16.228 2.69 159.596 2.69 159.596l-30.76 2.124-3.06-135.915-56.183 1.451 5.857-38.956z"/>
            <path fill="#00143A" d="M113.864 202.645l-.825 36.443h-11.41l-15.055-35.316c.022-.022 22.56-3.185 27.29-1.127z" opacity=".15"/>
        </g>
        <path fill="#F6BA99" fill-rule="nonzero" d="M21.995 200.76s74.775-9.1 83.886 7.15c9.11 16.228-.022 162.37-.022 162.37H78.266l-3.71-130.953-16.942-.672c-20.39.52-36.856-16.467-35.684-36.812l.065-1.083z"/>
        <path fill="#FCE8CF" fill-rule="nonzero" d="M43.926 120.658l-24.686-5.005s8.178-36.725 36.617-36.725c27.246 0 28.873 1.17 28.873 1.17s30.913 1.712 44.644 28.795l-23.84 17.399-5.836-3.51s-1.909 38.306 1.367 48.75c3.71 11.786 9.718 26.065 9.718 26.065l-88.81 3.163 21.953-80.102c-8.525-.52-16.334-2.188-24.209-5.525"/>
        <path fill="#4CBBDD" fill-rule="nonzero" d="M97.225 122.283c-.303 2.557 1.562 4.832 3.45 6.587 1.887 1.755 4.056 3.51 4.685 6.002.412 1.668.044 3.466-.629 5.048-1.757 4.117-5.705 7.215-10.109 7.973"/>
        <path d="M196.47 167.307l-.933-2.47"/>
        <path fill="#F6BA99" fill-rule="nonzero" d="M127.27 110.432s37.42 37.483 44.557 45.868c6.096 7.15 2.126 20.648-2.994 21.233-5.12.585-87.595-.541-87.595-.541l1.085-16.857s53.429.238 54.99-.737c1.563-.975-30.911-33.778-30.911-33.778l20.868-15.188z"/>
        <path fill="#F6BA99" fill-rule="nonzero" d="M82.366 160.157s-17.658 1.191-20.608 17.138l19.523-.282 1.085-16.856z"/>
        <path fill="#F6BA99" fill-rule="nonzero" d="M20.997 115.653S8.957 150.147 7.591 154.22c-1.367 4.073-8.439 21.277 4.967 22.707 13.407 1.451 85.383 0 85.383 0l5.358-17.399s-69.568-.173-69.221-3.878c.347-3.705 10.564-34.797 10.564-34.797l-23.645-5.2z"/>
        <path fill="#062A63" fill-rule="nonzero" d="M168.855 106.662l-25.858 71.521-119.006-.043.824-3.51 45.208-3.293 21.432-65.78z"/>
        <path fill="#FFF" fill-rule="nonzero" d="M113.842 144.838c-.477 2.644.976 5.114 3.232 5.525 2.256.412 4.47-1.43 4.946-4.073.478-2.643-.976-5.113-3.232-5.525-2.256-.39-4.469 1.43-4.946 4.073z"/>
        <path fill="#F6BA99" fill-rule="nonzero" d="M83.971 79.513s2.256 29.965-8.308 29.684c-10.565-.26-16.422-30.269-16.422-30.269 8.157-1.17 16.4-.953 24.73.585z"/>
        <path fill="#C6A88B" fill-rule="nonzero" d="M42.364 127.007c.304.065 1.367-3.38 2.625-7.649 1.237-4.268 2.278-7.713 1.974-7.821-.282-.109-1.8 3.206-3.058 7.518-1.28 4.29-1.844 7.887-1.54 7.952zM58.612 78.798c-.065.022.087.975.5 2.644a77.368 77.368 0 0 0 2.103 7.041A91.013 91.013 0 0 0 65.36 98.58c.91 1.842 1.8 3.792 3.037 5.72 1.236 1.863 2.841 3.9 5.38 4.68 2.56.823 5.25-.368 6.811-2.058 1.67-1.734 2.451-3.922 2.95-5.915.955-4.03 1.302-7.735 1.389-10.855.086-3.12-.13-5.634-.347-7.345-.217-1.734-.434-2.665-.521-2.644-.195.022.39 3.835.065 9.967-.174 3.055-.607 6.717-1.584 10.638-.52 1.929-1.28 3.922-2.733 5.417-1.432 1.495-3.623 2.427-5.705 1.755-2.06-.628-3.601-2.427-4.772-4.203-1.172-1.82-2.105-3.77-3.037-5.569a112.575 112.575 0 0 1-4.317-9.923 143.986 143.986 0 0 1-2.43-6.89c-.564-1.668-.868-2.578-.933-2.557z"/>
        <path fill="#C6A88B" fill-rule="nonzero" d="M20.997 111.298c-.152.239 4.772 3.315 11.692 4.962 6.899 1.69 12.712 1.213 12.69.932 0-.347-5.683-.369-12.408-2.037-6.746-1.582-11.822-4.16-11.974-3.857zM48.569 134.807c-.087.086.78 1.365 2.841 2.751 2.018 1.387 5.358 2.73 9.198 2.6 3.84-.151 7.072-1.733 9.003-3.25 1.952-1.538 2.733-2.881 2.646-2.946-.13-.13-1.128.996-3.102 2.296-1.952 1.3-5.011 2.644-8.569 2.774-3.557.13-6.724-.997-8.742-2.145-2.06-1.17-3.145-2.232-3.275-2.08z"/>
        <path fill="#EF6C74" fill-rule="nonzero" d="M113.864 315.398l-40.045.499-1.779-73.277s-52.822 3.12-51.499-44.373c0 0 79.114-5.092 84.971 0 15.88 13.845 8.33 116.003 8.33 116.003"/>
        <path fill="#EF6C74" fill-rule="nonzero" d="M168.855 313.903h-40.76l-2.452-74.836-25.25 3.185-26.921-42.294s60.935-13.368 86.663 6.37c2.039 1.582 3.709 7.129 3.84 9.707l4.88 97.868z"/>
        <path fill="#A84E59" fill-rule="nonzero" d="M81.628 196.643c0 .217 3.927-.021 10.196.39 3.102.26 6.833.802 10.608 2.427 3.73 1.582 7.505 4.42 9.566 8.667 2.104 4.203 2.603 8.818 2.647 12.913-.022 4.138-.13 7.908-.087 11.072.043 3.163.174 5.72.304 7.475.152 1.755.282 2.73.347 2.73.087 0 .087-.975.087-2.752 0-1.755-.022-4.312.043-7.453.087-3.229.195-6.977.325-11.072 0-4.182-.455-8.97-2.69-13.433-2.19-4.507-6.247-7.519-10.152-9.122-3.948-1.647-7.788-2.123-10.955-2.275-3.189-.152-5.748 0-7.505.087-1.78.151-2.734.281-2.734.346zM128.767 229.967c-.304-.065-1.02 1.885-1.605 4.376-.586 2.492-.803 4.572-.5 4.637.304.065 1.02-1.885 1.606-4.377.564-2.491.802-4.571.499-4.636zM125.882 227.063c-.304-.043-1.042 2.882-.955 6.587.065 3.705.911 6.608 1.215 6.543.325-.065-.022-2.968-.087-6.565-.065-3.596.152-6.521-.173-6.565zM74.622 232.047c-.304-.087-1.28 2.665-2.191 6.11-.912 3.445-1.389 6.326-1.107 6.391.304.087 1.28-2.665 2.191-6.11.933-3.466 1.41-6.326 1.107-6.391z"/>
        <path fill="#A84E59" fill-rule="nonzero" d="M71.086 232.025c-.304-.043-.868 2.795-.673 6.327.195 3.531 1.063 6.283 1.345 6.218.326-.065-.043-2.86-.217-6.283-.195-3.424-.13-6.24-.455-6.262z"/>
        <path fill="#154593" fill-rule="nonzero" d="M105.729 370.323s17.202 2.969 12.213 4.485c-5.011 1.517-39.98-1.256-39.98-1.256v-3.965l27.767.736zM162.63 371.818s18.698 2.189 13.644 3.705c-5.054 1.517-45.403.26-45.403.26v-3.965h31.758z"/>
        <path fill="#AD9380" fill-rule="nonzero" d="M330.835 187.348h-534.944v-12.09h537.83z"/>
        <g fill-rule="nonzero">
            <path fill="#00143A" d="M356.91 70.478c-9.545 1.365-19.437.152-28.353-3.445-3.47-1.408-7.202-3.705-7.635-7.388-.434-3.532 2.386-6.673 2.754-10.205.282-2.752-.932-5.417-1.605-8.103-.672-2.687-.65-5.959 1.519-7.735 2.32-1.885 5.813-1.084 8.655-2.059 4.382-1.538 5.987-6.695 7.918-10.876 5.38-11.635 18.113-19.5 30.999-19.175 12.886.325 25.207 8.84 29.958 20.735l-44.21 48.251z"/>
            <path fill="#AD9380" d="M403.18 259.867l37.464 128.418h4.273l-28.742-128.852zM335.456 261.578l-28.331 124.757h5.033l37.919-124.8zM368.884 259.433l4.36 128.527h5.988l2.625-128.05z"/>
            <path fill="#AD9380" d="M334.176 312.365l85.556-2.687.564 8.862-92.541 3.532z"/>
            <path fill="#00143A" d="M335.456 261.578l-1.302 5.785h14.144l1.779-5.828zM368.928 261.102l.217 6.261h12.56l.152-7.453zM370.641 311.217l.304 9.208H365.5l-2.104-8.97 8.677-.238M380.815 310.892v9.143l4.122-.152 1.193-9.143zM403.18 259.867l1.324 4.593h12.799l-1.128-5.027z" opacity=".15"/>
            <path fill="#1F3443" d="M307.125 248.275c16.465-9.598 65.1-1.213 65.1-1.213s-18.764-170.3-.803-171.665c17.94-1.387 58.115-14.149 65.925 11.743 7.81 25.892-2.603 172.163-12.994 172.163-23.667 0-95.796 5.135-117.575.022-5.597-1.343.347-11.05.347-11.05z"/>
            <path fill="#2B4C60" d="M421.88 90.087c.065-.044.412.433 1.02 1.365.303.476.628 1.083.997 1.798.39.715.781 1.582 1.193 2.557 1.692 3.878 3.45 9.858 4.23 17.398.846 7.54.89 16.532.716 26.455-.173 9.945-.78 20.865-1.67 32.305-.911 11.44-1.996 22.295-3.037 32.175-1.02 9.858-2.018 18.785-3.428 26.217-1.366 7.431-3.058 13.325-4.49 17.29-1.432 3.965-2.516 6.045-2.646 6.002-.196-.066.585-2.276 1.713-6.284 1.128-4.03 2.538-9.902 3.666-17.29 1.15-7.388 1.974-16.25 2.864-26.152.91-9.88 1.93-20.735 2.842-32.153.889-11.397 1.561-22.273 1.865-32.175.304-9.902.434-18.828-.173-26.238-.564-7.432-1.996-13.304-3.385-17.225-1.344-3.879-2.45-5.937-2.277-6.045z"/>
            <path fill="#F6BA99" d="M242.958 154.783l-4.47-2.383s-2.884-1.04-7.57-3.878a13.528 13.528 0 0 1-3.232-2.752c-1.128-1.3-2.582-3.098-3.08-4.312-.63-1.473-2.669-1.603-2.972-.26-.304 1.344 1.301 5.46 5.076 9.144 3.753 3.683-4.165 2.578-7.05 2.231-2.886-.346-11.845-1.018-12.582-.238-1.063 1.17.108 2.643 2.993 2.925 2.929.282 11.54 1.733 11.432 3.25-.108 1.473-14.816-.498-14.816-.498s-3.123-.932-3.319.801c-.347 3.12 15.337 4.095 16.834 4.139 1.041.043.976 1.69-.152 1.581-1.15-.108-14.664-2.318-15.033.845-.304 2.427 12.907.91 15.597 2.925 2.69 1.994-10.217.109-10.412 2.449-.066.866 0 1.538 7.484 1.56 7.657.021 28.07-3.294 28.07-3.294l-2.95-14.451"/>
            <path fill="#D3702D" d="M340.51 90.693s-38.483 51.632-47.312 53.95c-8.829 2.297-59.286 5.33-59.286 5.33l-4.49 21.819s64.579 3.401 78.81-7.085c22.343-16.467 45.814-54.384 45.814-54.384.586-12.48-4.186-18.72-13.536-19.63z"/>
            <path fill="#635449" d="M236.06 358.407l.65 19.305s-23.276 5.005-18.005 6.781c5.271 1.777 42.757-.086 42.757-.086s-.304-23.595-.044-23.574c.282.022-25.359-2.426-25.359-2.426zM299.099 342.547l10.195 17.138s-14.23 15.795-8.916 14.148c5.315-1.646 32.388-24.418 32.388-24.418s-11.931-19.63-11.693-19.782c.239-.13-21.974 12.914-21.974 12.914z"/>
            <path fill="#0F356D" d="M273.501 228.06l50.089 105.473-22.56 12.697-61.326-89.267 3.275-31.091z"/>
            <path fill="#154593" d="M391.965 187.24s21.433 45.76-20.825 61.468l-22.56-48.966 43.385-12.502z"/>
            <path fill="#154593" d="M363.222 199.633s-119.852-32.651-133.519-4.528c-13.666 28.123 4.6 167.44 4.6 167.44h28.569s.455-125.797 6.746-130.347c3.796-2.751 34.47 3.835 63.148 10.14 18.634 4.095 35.012 6.652 38.591 6.479 22.105-1.127 38.006-42.987-8.135-49.184z"/>
            <path fill="#D3702D" d="M365.153 76.892c-16.03.346-28.157 11.44-28.7 26.433-.477 13.303-2.299 32.175-2.342 47.753-.044 8.45-10.24 39.585-10.24 39.585l13.125 4.637c16.747 2.795 27.485 3.467 43.884-.975l12.322-3.337s7.093-37.006 11.128-71.738c3.363-29.033-2.19-40.3-19.805-42.77l-19.372.412z"/>
            <path fill="#F6BA99" d="M356.715 78.972c.542-2.817-.347-14.669-.347-14.669s-10.803-1.365-11.237-12.09c-.434-10.725.737-35.425.737-35.425l19.914-9.208 21.346 16.857 6.421 17.116-9.393 8.754-2.213 26.845-25.228 1.82z"/>
            <g fill="#00143A">
                <path d="M347.647 34.837a1.379 1.379 0 0 0 2.755.065 1.379 1.379 0 0 0-2.755-.065zM346.345 33.32c.174.173 1.215-.65 2.69-.715 1.475-.065 2.582.693 2.734.498.086-.086-.109-.411-.586-.758-.477-.347-1.28-.65-2.191-.628-.911.043-1.692.411-2.126.801-.455.369-.607.715-.52.802z"/>
            </g>
            <g fill="#00143A">
                <path d="M364.177 34.035c-.63.412-.803 1.257-.39 1.907.412.628 1.258.801 1.908.39.63-.412.803-1.257.39-1.907a1.406 1.406 0 0 0-1.908-.39zM362.745 33.645c.174.173 1.215-.65 2.69-.715 1.475-.065 2.582.693 2.733.498.087-.086-.108-.411-.585-.758-.478-.347-1.28-.65-2.191-.628-.933.043-1.692.411-2.126.801-.456.39-.608.737-.52.802z"/>
            </g>
            <path fill="#00143A" d="M357.148 46.017c0 .065-.932.086-2.43.043-.194 0-.39 0-.628-.065-.239-.065-.5-.26-.586-.52-.195-.542.043-1.062.174-1.517l1.04-3.055c.76-2.166 1.454-4.116 1.997-5.503.542-1.387.889-2.253.954-2.232.065.022-.173.91-.629 2.362a314.145 314.145 0 0 1-1.844 5.568c-.369 1.062-.737 2.08-1.063 3.034-.173.455-.325.91-.238 1.213.086.303.477.368.846.39 1.496.087 2.407.217 2.407.282z"/>
            <path fill="#F2957E" d="M364.068 42.485c.022 1.213 1.888 2.145 4.165 2.232 2.278.086 4.187-.65 4.296-1.885.086-1.214-1.757-2.427-4.144-2.535-2.408-.109-4.338.975-4.317 2.188z" opacity=".52"/>
            <path fill="#F3F0EB" d="M362.008 47.512c1.518-.954-4.187 2.361-7.202 2.318 0 0 1.8 2.708 4.88 1.495 3.168-1.278 2.322-3.813 2.322-3.813z"/>
            <path fill="#F2957E" d="M356.368 64.303s7.223.239 14.317-4.506c0 0-3.384 7.8-14.144 7.128l-.173-2.622z"/>
            <path fill="#F6BA99" d="M278.425 156.127l-4.078-3.012s-2.712-1.43-6.942-4.918c-1.106-.91-2.039-1.994-2.82-3.185-.932-1.452-2.104-3.445-2.43-4.702-.411-1.56-2.407-1.972-2.906-.672-.499 1.3.52 5.59 3.71 9.772 3.188 4.182-4.491 1.972-7.311 1.192-2.82-.759-11.584-2.709-12.408-2.015-1.215.996-.282 2.621 2.538 3.315 2.841.693 11.171 3.358 10.846 4.831-.325 1.452-14.6-2.621-14.6-2.621s-2.95-1.365-3.405.325c-.78 3.033 14.6 6.218 16.053 6.5 1.02.195.716 1.798-.37 1.538-1.127-.26-14.164-4.377-15.01-1.3-.651 2.362 12.646 2.752 15.01 5.113 2.387 2.362-10.13-1.343-10.65.954-.195.845-.217 1.516 7.18 2.621 7.57 1.105 28.266.737 28.266.737l-.868-14.733"/>
            <path fill="#00143A" d="M345.738 16.637c4.295 5.265 10.695 8.775 17.441 9.62 6.465.801 13.471-.694 19.242 2.361.824-5.351-2.126-10.855-6.573-13.953-4.447-3.077-10.174-3.965-15.554-3.293-5.38.671-10.478 2.751-15.337 5.178"/>
            <path fill="#154593" d="M319.772 335.701c-.044.02-.239-.326-.586-.998a444.46 444.46 0 0 0-1.475-2.925c-.673-1.278-1.453-2.816-2.386-4.593-.955-1.798-2.018-3.813-3.21-6.067-4.86-8.991-11.52-21.341-18.873-34.991-7.376-13.672-13.992-26.087-18.613-35.165-1.128-2.275-2.17-4.334-3.08-6.154-.868-1.82-1.606-3.38-2.235-4.68a91.91 91.91 0 0 1-1.301-3.011c-.282-.694-.412-1.062-.39-1.085.043-.02.238.326.585.998.347.693.846 1.69 1.475 2.925.673 1.278 1.454 2.817 2.386 4.593.955 1.799 2.018 3.814 3.21 6.067 4.86 8.992 11.52 21.342 18.895 34.992 7.376 13.671 13.992 26.065 18.613 35.143 1.128 2.275 2.169 4.333 3.08 6.153.868 1.82 1.605 3.38 2.234 4.68a91.91 91.91 0 0 1 1.302 3.012c.26.715.39 1.083.369 1.106z"/>
            <path fill="#AD5A23" d="M333.048 173.958s35.034-2.21 45.555-15.058c10.52-12.848 24.165-36.075 24.165-36.075l2.734-16.228-72.454 67.361z" opacity=".43"/>
            <path fill="#0F356D" d="M267.97 231.115c-.196.217-2.126-1.192-4.274-3.163-.26-.239-.52-.499-.781-.737l.738-.758c1.605 1.798 2.69 3.271 2.494 3.445-.195.173-1.583-.997-3.275-2.73l.737-.759c.26.239.52.477.803.715 2.17 1.994 3.753 3.77 3.557 3.987zM269.097 232.025c-.282.065-.976-1.993-1.518-4.593-.542-2.6-.738-4.745-.456-4.81.282-.065.977 1.993 1.519 4.593.564 2.6.76 4.745.455 4.81z"/>
            <path fill="#F2893C" d="M391.401 85.32s-42.908 56.745-52.691 59.215c-9.762 2.47-65.513 5.417-65.513 5.417l-5.14 24.071s71.303 4.269 87.096-7.193c19.09-13.867 39.003-41.708 47.182-53.842 3.449-5.113 4.62-11.57 2.646-17.42-2.082-6.24-6.703-9.555-13.58-10.248z"/>
            <path fill="#2B4C60" d="M412.704 253.453c-.152.715-11.324-1.04-25.186-2.145-13.861-1.148-25.185-1.235-25.207-1.971-.043-.65 11.367-1.712 25.403-.542 14.035 1.127 25.12 4.008 24.99 4.658zM408.43 140.527c-.108.086-.52-.044-.716-.737-.173-.693.174-1.777 1.15-2.492.499-.346 1.171-.65 2.04-.563.433.065.845.195 1.192.39.37.195.694.477.955.802 1.084 1.3 1.366 3.12.78 4.853-.607 1.668-1.952 2.947-3.6 3.315a3.294 3.294 0 0 1-1.215.043 3.528 3.528 0 0 1-1.171-.368 3.428 3.428 0 0 1-1.367-1.495c-.52-1.083-.347-2.145.065-2.687.412-.541.824-.563.911-.455.13.13 0 .434 0 .824-.022.368.13.91.564 1.408.217.238.477.433.76.52.151.022.238.043.411.043.174 0 .348-.043.521-.086.694-.217 1.454-.975 1.779-1.907.325-.888.173-1.972-.239-2.557-.455-.606-.846-.758-1.475-.541-.586.216-.954.628-1.084.953-.13.325-.087.65-.26.737z"/>
            <path fill="#00143A" d="M383.7 55.355c-1.518-.368.456-7.648.413-9.208 3.644.736 7.375-3.034 6.638-6.674-.76-3.618-5.706-5.59-8.743-3.466-.477-4.615-1.28-9.837-5.076-12.502-2.386-1.69-5.445-1.972-8.351-2.427a54.583 54.583 0 0 1-21.194-8.146c5.336-6.479 13.84-9.924 22.235-10.032 0 0 24.621 2.232 30.717 17.637 6.117 15.405-5.185 37.613-16.639 34.818z"/>
            <path fill="#00143A" d="M351.313 13.712c-.065.021.13.606.608 1.581.477.975 1.28 2.362 2.43 3.944 2.299 3.163 6.29 7.085 11.735 9.728 5.445 2.622 11.02 3.315 14.925 3.142 1.952-.087 3.535-.304 4.598-.542 1.063-.238 1.65-.433 1.627-.498-.043-.195-2.408.303-6.247.26-3.818-.022-9.155-.824-14.426-3.359-5.25-2.535-9.198-6.24-11.584-9.208-2.408-2.99-3.492-5.135-3.666-5.048z"/>
            <path fill="#F6BA99" d="M405.003 95.568s-2.517-19.153-22.93-20.28c-20.412-1.148-40.001 4.529-44.318 18.915l67.248 1.365z"/>
            <path fill="#F2893C" d="M405.024 95.222c1.063 2.99 2.126 6.153 1.519 9.251-.607 3.099-3.58 5.98-6.66 5.309-3.73-.824-5.596-6.089-9.436-6.045-2.864.043-4.62 3.033-6.963 4.658-2.734 1.907-6.704 1.863-9.393-.108-2.343-1.734-3.84-4.767-6.682-5.482-5.532-1.387-9.61 7.193-15.228 6.305-4.426-.715-7.029-7.107-11.454-6.283-3.059.585-4.707 4.528-7.81 4.853-2.364.26-4.49-2.015-4.642-4.398-.151-2.384 1.302-4.637 3.168-6.089 1.887-1.451 4.186-2.275 6.42-3.055l67.161 1.084z"/>
            <path fill="#BA6125" d="M337.864 108.937c-.196 0-.196 2.036-.109 5.265.022.801.022 1.69-.022 2.621-.021.455-.065.932-.151 1.387-.044.217-.13.433-.196.542a4.645 4.645 0 0 1-.455.541c-1.389 1.452-3.688 2.124-5.792 3.749-1.041.801-1.866 1.971-2.191 3.206-.347 1.235-.304 2.47-.065 3.575.477 2.254 1.779 3.922 2.928 5.092 1.172 1.192 2.256 1.95 2.994 2.47.76.52 1.193.758 1.236.693.13-.151-1.518-1.365-3.644-3.726-1.041-1.192-2.126-2.752-2.495-4.745-.412-1.972.065-4.312 1.953-5.699 1.822-1.43 4.23-2.166 5.835-3.9.195-.216.369-.411.542-.693.196-.347.26-.628.326-.91.108-.563.108-1.062.13-1.56 0-.975-.043-1.863-.109-2.687-.325-3.271-.585-5.221-.715-5.221zM373.18 108.807c-.044 0-.087.65.629 1.495.694.801 2.256 1.581 4.208 1.321 1.974-.281 3.818-1.733 5.618-3.228 1.757-1.43 4.057-3.098 6.508-2.427 2.408.672 4.209 2.925 6.66 3.749 2.473.866 4.86.281 6.486-.629 1.67-.91 2.647-2.145 3.145-3.055.478-.931.521-1.516.478-1.538-.087-.043-.304.498-.846 1.3a8.155 8.155 0 0 1-3.124 2.578c-1.519.737-3.688 1.149-5.77.369-2.105-.715-3.797-2.969-6.747-3.879-1.497-.433-3.058-.086-4.273.52-1.237.607-2.256 1.43-3.167 2.21-1.78 1.582-3.428 2.904-5.098 3.25-1.649.325-3.059-.238-3.753-.845-.716-.65-.846-1.235-.955-1.191zM338.796 144.622c-.26.173.37 1.56 1.41 3.098 1.042 1.538 2.083 2.643 2.343 2.47.26-.173-.369-1.56-1.41-3.098-1.02-1.539-2.082-2.644-2.343-2.47z"/>
            <path fill="#BA6125" d="M339.49 151.728c.304-.043.391-1.473.196-3.228-.195-1.755-.63-3.142-.933-3.098-.304.043-.39 1.473-.195 3.228.217 1.755.629 3.142.933 3.098z"/>
        </g>
    </g>
</svg>
