<svg xmlns="http://www.w3.org/2000/svg" xmlns:xlink="http://www.w3.org/1999/xlink" width="41" height="41" viewBox="0 0 41 41">
    <defs>
        <path id="a" d="M16 13.333v.89C16 15.2 15.2 16 14.222 16H1.778C.79 16 0 15.2 0 14.222V1.778C0 .8.791 0 1.778 0h12.444C15.2 0 16 .8 16 1.778v.889H8c-.987 0-1.778.8-1.778 1.777v7.112c0 .977.791 1.777 1.778 1.777h8zm-8-1.777h8.889V4.444H8v7.112zm3.556-2.223A1.332 1.332 0 0 1 10.222 8c0-.738.596-1.333 1.334-1.333.737 0 1.333.595 1.333 1.333s-.596 1.333-1.333 1.333z"/>
    </defs>
    <g fill="none" fill-rule="evenodd">
        <circle cx="20.5" cy="20.5" r="20.5" fill="#5ECC95"/>
        <use fill="#FFF" transform="translate(12 13)" xlink:href="#a"/>
    </g>
</svg>
