<svg xmlns="http://www.w3.org/2000/svg" xmlns:xlink="http://www.w3.org/1999/xlink" width="41" height="41" viewBox="0 0 41 41">
    <defs>
        <path id="a" d="M14.222 1.8h-3.715C10.133.756 9.156 0 8 0 6.844 0 5.867.756 5.493 1.8H1.778C.8 1.8 0 2.61 0 3.6v12.6c0 .99.8 1.8 1.778 1.8h12.444C15.2 18 16 17.19 16 16.2V3.6c0-.99-.8-1.8-1.778-1.8zM8 1.8c.489 0 .889.405.889.9s-.4.9-.889.9a.897.897 0 0 1-.889-.9c0-.495.4-.9.889-.9zM6.222 14.4l-3.555-3.6L3.92 9.531l2.302 2.322 5.858-5.931L13.333 7.2l-7.11 7.2z"/>
    </defs>
    <g fill="none" fill-rule="evenodd">
        <circle cx="20.5" cy="20.5" r="20.5" fill="#F17F60"/>
        <use fill="#FFF" transform="translate(13 12)" xlink:href="#a"/>
    </g>
</svg>
