<svg width="386" height="450" viewBox="0 0 386 450" fill="none" xmlns="http://www.w3.org/2000/svg">
<path d="M189.949 181.509L233.857 147.978L255.548 97.5822L281.609 105.032L255.876 157.612L201.679 198.767L189.949 181.509" fill="#F6BA99"/>
<path d="M200.085 179.959L195.039 180.417C195.039 180.417 192.024 181.182 186.563 181.357C185.143 181.4 183.723 181.182 182.369 180.767C180.73 180.242 178.589 179.457 177.541 178.67C176.252 177.687 174.439 178.779 174.854 180.199C175.269 181.619 178.764 184.415 183.854 185.551C188.966 186.687 181.604 190.357 178.939 191.755C176.274 193.131 168.257 197.805 168.039 198.963C167.711 200.667 169.459 201.323 172.102 199.881C174.767 198.417 182.893 194.66 183.57 196.101C184.225 197.521 170.594 204.381 170.594 204.381C170.594 204.381 167.449 205.386 168.148 207.068C169.437 210.104 183.395 201.738 184.684 200.908C185.602 200.34 186.366 201.868 185.361 202.437C184.313 203.027 171.599 208.968 172.888 212.092C173.871 214.473 184.422 205.32 187.764 205.539C191.107 205.757 179.048 211.677 180.075 213.927C180.468 214.757 180.861 215.325 187.284 210.934C193.859 206.434 209.696 191.361 209.696 191.361L199.801 179.915" fill="#F6BA99"/>
<path d="M334.823 259.976L373.75 236.929L384.694 256.655L345.701 279.461L334.823 259.976Z" fill="#CE5163"/>
<path d="M262.408 306.242C275.492 366.402 361.713 422.347 361.713 422.347L377.573 405.417C377.573 405.417 307.102 342.548 304.153 315.067C301.203 287.587 324.184 244.509 324.184 244.509L300.352 234.374L262.408 306.242V306.242Z" fill="#F3A28D"/>
<path d="M341.791 170.085C342.534 170.128 340.218 206.653 332.441 222.599C331.655 224.194 331.043 226.925 328.815 232.735C325.145 242.281 283.75 303.534 283.75 319.568C283.75 329.988 251.813 443.252 251.813 443.252L225.577 438.206L243.687 314.915L270.643 197.959L341.791 170.085V170.085ZM292.509 69.0972C292.925 66.6282 291.919 56.2302 291.919 56.2302C291.919 56.2302 282.439 55.2262 281.871 45.8322C281.303 36.4392 281.871 14.7472 281.871 14.7472L299.151 6.31517L318.155 20.7112L315.272 67.7212L292.509 69.0972V69.0972Z" fill="#F6BA99"/>
<path d="M316.692 27.9422C316.692 27.9422 301.182 26.4782 298.452 12.4102L281.631 27.9422C281.631 27.9422 276.519 17.5222 285.847 7.84418C295.175 -1.85482 301.575 0.177176 305.223 0.177176C308.631 0.177176 325.866 3.82518 331 23.4422C331.371 24.8622 331.677 28.3782 331.917 29.9732L316.692 27.9422V27.9422Z" fill="#F17F60"/>
<path d="M283.75 30.5412C283.75 31.1962 284.296 31.7422 284.951 31.7422C285.607 31.7422 286.153 31.1962 286.153 30.5412C286.153 29.8862 285.607 29.3402 284.951 29.3402C284.296 29.3402 283.75 29.8862 283.75 30.5412V30.5412ZM282.592 29.2302C282.745 29.3832 283.641 28.6402 284.929 28.5532C286.219 28.4662 287.201 29.0992 287.332 28.9252C287.398 28.8372 287.245 28.5532 286.808 28.2692C286.393 27.9852 285.694 27.7232 284.886 27.7672C284.077 27.8102 283.4 28.1602 283.029 28.5092C282.636 28.8592 282.526 29.1652 282.592 29.2302V29.2302Z" fill="#00143A"/>
<path d="M297.709 30.5412C297.709 31.1962 298.256 31.7422 298.911 31.7422C299.566 31.7422 300.112 31.1962 300.112 30.5412C300.112 29.8862 299.566 29.3402 298.911 29.3402C298.234 29.3402 297.709 29.8862 297.709 30.5412V30.5412ZM296.966 29.2302C297.12 29.3832 298.016 28.6402 299.304 28.5532C300.593 28.4662 301.576 29.0992 301.707 28.9252C301.773 28.8372 301.62 28.5532 301.183 28.2692C300.768 27.9852 300.069 27.7232 299.26 27.7672C298.452 27.8102 297.775 28.1602 297.404 28.5092C297.01 28.8592 296.879 29.1652 296.967 29.2302H296.966Z" fill="#00143A"/>
<path d="M292.291 40.1752C292.291 40.2402 291.483 40.2842 290.151 40.2842C289.997 40.2842 289.801 40.2842 289.582 40.2402C289.461 40.2137 289.348 40.1581 289.253 40.0781C289.158 39.9982 289.083 39.8962 289.036 39.7812C288.861 39.2792 289.058 38.8422 289.167 38.4272C289.429 37.5752 289.713 36.6792 290.019 35.7402C290.545 34.1096 291.091 32.4858 291.658 30.8692C292.094 29.6242 292.422 28.8812 292.488 28.9032C292.553 28.9252 292.357 29.7112 292.007 30.9782C291.657 32.2452 291.111 33.9712 290.5 35.8932C290.194 36.8332 289.888 37.7282 289.604 38.5802C289.451 38.9952 289.32 39.3662 289.429 39.6282C289.495 39.8682 289.823 39.9342 290.15 39.9342C291.483 40.0222 292.291 40.1092 292.291 40.1742V40.1752Z" fill="#00143A"/>
<path opacity="0.33" d="M298.496 40.8292C298.54 41.9002 300.178 42.6652 302.188 42.7092C304.198 42.7522 305.858 42.0532 305.901 40.9832C305.967 39.9132 304.307 38.8862 302.231 38.8422C300.134 38.7982 298.474 39.7592 298.496 40.8302V40.8292Z" fill="#F2957E"/>
<path d="M296.573 41.4192C297.883 40.5462 292.946 43.5822 290.303 43.5822C290.303 43.5822 291.942 45.9202 294.607 44.8062C297.359 43.6262 296.573 41.4202 296.573 41.4202V41.4192Z" fill="#F3F0EB"/>
<path d="M291.92 56.2302C291.92 56.2302 298.255 56.2962 304.371 52.0142C304.371 52.0142 301.553 58.9172 292.116 58.5242L291.92 56.2302Z" fill="#F2957E"/>
<path d="M352.343 233.806L350.159 238.393C350.159 238.393 349.285 241.363 346.642 246.17C345.964 247.415 345.047 248.529 343.998 249.468C342.709 250.604 340.94 252.046 339.717 252.548C338.209 253.16 338.231 255.278 339.651 255.65C341.071 256.022 345.265 254.449 348.848 250.648C352.43 246.847 351.841 255.038 351.666 258.053C351.491 261.046 351.426 270.33 352.299 271.116C353.589 272.252 355.052 271.094 355.139 268.102C355.226 265.065 356.166 256.152 357.739 256.306C359.289 256.459 358.241 271.706 358.241 271.706C358.241 271.706 357.498 274.917 359.311 275.179C362.588 275.639 362.523 259.364 362.479 257.813C362.457 256.743 364.161 256.852 364.139 258.009C364.117 259.211 362.741 273.169 366.061 273.672C368.617 274.043 366.127 260.282 368.027 257.551C369.927 254.821 368.857 268.189 371.304 268.429C372.222 268.517 372.921 268.473 372.418 260.696C371.916 252.745 367.044 231.425 367.044 231.425L352.146 234.09" fill="#F6BA99"/>
<path d="M267.498 177.228C266.843 192.891 269.355 205.058 269.355 205.058L340.241 202.371C340.241 202.371 348.673 182.056 332.836 155.427C327.964 147.235 328.51 136.881 329.581 115.735L337.423 84.0822L328.183 66.2572L286.153 69.1192C286.153 69.1192 262.518 69.1192 251.508 101.799L268.94 122.332L269.137 131.179L267.498 177.228V177.228Z" fill="#A0D2DB"/>
<path d="M298.91 11.2742C298.91 11.2742 295.458 17.9372 296.944 22.9392L281.871 26.8272C281.871 26.8492 278.42 7.73518 298.91 11.2742V11.2742ZM327.81 18.0892C328.531 16.1452 329.842 14.3762 331.633 13.3492C333.425 12.3232 335.718 12.1042 337.597 12.9782C339.475 13.8522 340.808 15.9052 340.611 17.9582C340.415 20.2522 338.405 22.1532 336.155 22.6772C333.905 23.2012 331.502 22.5672 329.492 21.4542" fill="#F17F60"/>
<path d="M323.9 22.7862C323.594 22.4592 326.217 19.7282 328.139 15.6212C330.127 11.5362 330.608 7.77918 331.066 7.82318C331.263 7.84418 331.393 8.80618 331.24 10.3782C331.087 11.9512 330.563 14.0922 329.514 16.2762C328.466 18.4612 327.111 20.2092 325.997 21.3232C324.883 22.4372 324.053 22.9392 323.9 22.7862V22.7862ZM328.488 20.0992C328.575 19.9252 329.275 20.0342 330.279 20.5582C331.285 21.0602 332.551 21.9782 333.665 23.2882C334.779 24.5782 335.501 25.9762 335.85 27.0462C336.2 28.1162 336.222 28.8162 336.025 28.8812C335.61 29.0112 334.54 26.6312 332.486 24.2932C330.498 21.8912 328.291 20.4932 328.488 20.0992ZM331.896 27.7012C331.896 27.7012 334.474 49.1752 316.146 53.0852L316.693 27.1332L331.896 27.7012Z" fill="#F17F60"/>
<path d="M329.077 66.2352C329.077 66.2352 342.512 66.7812 347.383 82.4882L336.942 105.031L327.679 66.2352" fill="#F6BA99"/>
<path d="M329.908 114.425L354.046 103.721C354.046 103.721 351.053 62.3032 325.473 66.4312L329.908 114.425Z" fill="#A0D2DB"/>
<path d="M351.075 105.031C351.075 105.031 371.565 199.335 366.869 247.808L348.344 244.968C348.344 244.968 345.374 157.852 329.908 114.425L351.075 105.031V105.031Z" fill="#F6BA99"/>
<path d="M270.293 128.339C269.857 123.643 264.548 120.148 265.051 115.451C265.269 113.354 266.645 111.585 267.978 109.946C270.643 106.648 273.308 103.349 275.995 100.029" fill="#A0D2DB"/>
<path d="M318.746 119.558C318.833 119.711 317.588 120.716 315.12 121.393C312.695 122.07 308.96 122.223 305.333 120.585C301.707 118.925 299.348 116.019 298.277 113.747C297.163 111.454 297.12 109.837 297.273 109.815C297.513 109.75 297.928 111.213 299.217 113.223C300.462 115.211 302.734 117.723 305.967 119.209C309.222 120.672 312.586 120.738 314.901 120.366C317.261 119.995 318.637 119.34 318.746 119.558V119.558ZM330.193 147.366C330.302 147.759 327.309 148.917 323.464 149.682C319.62 150.446 316.409 150.49 316.364 150.097C316.321 149.682 319.379 148.939 323.18 148.197C326.981 147.454 330.083 146.973 330.193 147.367V147.366ZM329.516 145.007C329.537 145.422 325.693 145.968 320.952 146.209C316.212 146.449 312.324 146.318 312.302 145.881C312.28 145.466 316.102 144.92 320.865 144.679C325.627 144.439 329.493 144.592 329.515 145.007H329.516ZM329.69 114.774C329.297 114.884 327.33 109.269 325.561 102.148C323.792 95.0262 322.896 89.1502 323.29 89.0632C323.705 88.9762 325.256 94.6992 327.025 101.776C328.795 108.876 330.083 114.665 329.69 114.774V114.774Z" fill="#6CBCC4"/>
<path d="M222.06 442.422C222.06 442.422 200.98 447.643 205.83 449.107C210.68 450.57 249.628 448.32 249.628 448.32L250.546 440.085L222.06 442.422Z" fill="#0F356D"/>
<path d="M222.061 442.422L224.421 429.84L254.828 430.473L249.87 448.713L222.061 442.422Z" fill="#0F356D"/>
<path d="M362.937 429.119C362.937 429.119 354.067 448.954 358.218 446.026C362.368 443.099 384.541 411.031 384.541 411.031L378.621 405.221L362.937 429.119V429.119Z" fill="#0F356D"/>
<path d="M362.937 429.119L354.505 419.507L372.045 397.051L385.022 411.053L362.937 429.119Z" fill="#0F356D"/>
<path d="M268.24 156.148L331 151.582C331 151.582 352.713 173.602 338.558 211.786C324.403 249.971 305.354 299.602 305.354 299.602L247.575 291.999C247.575 291.999 267.672 172.356 268.24 156.147V156.148Z" fill="#0F356D"/>
<path d="M331 151.582L251.529 292.502L247.575 292L268.24 156.148L331 151.582Z" fill="#154593"/>
<path d="M275.055 100.226C275.143 100.444 273.745 101.034 271.932 102.541C270.119 104.005 267.956 106.561 266.952 109.946C265.968 113.332 266.449 116.653 267.17 118.859C267.89 121.087 268.764 122.332 268.568 122.485C268.437 122.595 267.235 121.568 266.165 119.252C265.116 116.98 264.374 113.332 265.488 109.509C266.602 105.709 269.179 102.999 271.276 101.667C273.439 100.291 275.012 100.073 275.056 100.226H275.055Z" fill="#6CBCC4"/>
<path d="M281.762 69.7302C281.762 69.7302 273.155 98.7182 289.298 97.5392C305.42 96.3812 331.306 66.2792 331.306 66.2792C331.153 65.6242 286.524 67.3492 281.762 69.7302V69.7302Z" fill="#F6BA99"/>
<path d="M267.65 160.079L332.835 155.427L330.192 147.367L268.393 151.932L267.65 160.079Z" fill="#0F356D"/>
<path d="M37.07 223.189C37.07 223.189 43.406 308.055 39.43 318.759C35.345 329.703 0.0219727 425.754 0.0219727 425.754L31.588 439.232C31.588 439.232 77.33 337.917 78.335 331.21C79.34 324.504 75.845 244.465 75.845 244.465L66.233 227.558L37.071 223.188L37.07 223.189Z" fill="#CE5964"/>
<path d="M91.3551 11.7764C91.3551 11.7764 94.4351 17.3464 94.2821 22.8084C94.2161 25.3634 94.4791 27.9194 95.2871 30.3444C96.2701 33.3594 97.3181 36.9634 96.8371 37.6184C96.0071 38.7764 92.9061 38.1214 92.9061 38.1214C92.9061 38.1214 92.9711 54.2644 84.9321 53.1934C77.3521 52.1674 80.2141 52.0794 80.2141 52.0794L79.8431 61.9094L55.6831 61.0144L56.1191 49.2404L59.8111 8.06241L91.3551 11.7764V11.7764Z" fill="#C49882"/>
<path d="M49.9151 15.1624C45.0451 19.1164 51.2921 31.3494 53.6511 36.5484C56.0111 41.7474 56.0971 50.2014 56.0971 50.2014C71.3231 52.9314 74.0541 41.5944 74.0541 41.5944C74.0541 41.5944 76.3261 36.1334 70.4061 35.6744C63.6781 35.1504 64.0271 27.0894 68.8111 25.4944C71.6291 24.5554 73.3551 27.5044 73.7041 29.9294C73.9231 31.3054 75.2991 30.4314 75.2991 30.4314C75.2991 30.4314 75.2121 25.8444 75.2771 22.2614C75.3641 18.4614 74.9271 14.1354 74.9271 14.1354L92.1411 12.2784C92.1411 12.2784 90.2841 -3.62359 63.8741 0.766408C52.0131 2.73241 49.9151 15.1624 49.9151 15.1624Z" fill="#00143A"/>
<path d="M71.323 32.6814C71.345 32.6814 71.345 32.8564 71.17 33.0754C70.996 33.2934 70.602 33.5554 70.078 33.5334C68.986 33.4904 67.915 32.3104 67.522 30.8904C67.3339 30.2058 67.3192 29.4851 67.479 28.7934C67.588 28.1814 67.959 27.5484 68.505 27.3734C68.767 27.2864 69.03 27.2864 69.226 27.3954C69.423 27.4824 69.554 27.6354 69.619 27.7664C69.75 28.0504 69.641 28.2254 69.619 28.2034C69.576 28.2034 69.597 28.0504 69.445 27.8764C69.3511 27.7583 69.2192 27.6763 69.0718 27.6444C68.9243 27.6124 68.7703 27.6326 68.636 27.7014C68.265 27.8544 68.025 28.3124 67.937 28.8814C67.8258 29.4988 67.8559 30.1333 68.025 30.7374C68.375 32.0044 69.292 33.0534 70.1 33.1624C70.515 33.2064 70.843 33.0524 71.017 32.9224C71.214 32.7914 71.28 32.6604 71.323 32.6824V32.6814Z" fill="#A87D6A"/>
<path opacity="0.42" d="M87.5099 32.6164C87.2039 33.9924 85.0419 34.6694 82.7039 34.1454C80.3669 33.6214 78.7069 32.0924 79.0129 30.7154C79.3179 29.3394 81.4589 28.6624 83.8179 29.1864C86.1779 29.7104 87.8159 31.2614 87.5099 32.6164V32.6164Z" fill="#F2957E"/>
<path d="M50.658 16.1894C52.231 12.2794 50.352 7.3194 46.573 5.4414C42.794 3.5624 37.704 5.1134 35.563 8.74041C34.624 10.3344 34.253 12.4104 35.127 14.0264C35.585 14.8784 36.328 15.5334 37.137 16.0584C40.828 18.4824 46.071 18.2424 49.544 15.4904L50.658 16.1894ZM73.704 29.9294C73.704 29.9294 78.008 51.7094 80.564 52.5164C83.119 53.3254 90.35 57.3884 92.513 44.7834L92.818 40.1744C92.818 40.1744 82.551 39.1694 80.127 37.1384C77.702 35.1284 75.277 29.0114 75.277 29.0114L73.704 29.9294V29.9294Z" fill="#00143A"/>
<path d="M90.525 26.0194C90.5183 26.2461 90.4447 26.4658 90.3132 26.6507C90.1818 26.8355 89.9985 26.9772 89.7865 27.0579C89.5745 27.1386 89.3434 27.1546 89.1223 27.104C88.9012 27.0533 88.7001 26.9383 88.5444 26.7734C88.3887 26.6084 88.2854 26.401 88.2475 26.1774C88.2097 25.9538 88.239 25.7239 88.3317 25.5169C88.4245 25.31 88.5765 25.1351 88.7686 25.0145C88.9607 24.8939 89.1842 24.833 89.411 24.8394C89.5622 24.8418 89.7114 24.8745 89.8498 24.9355C89.9882 24.9964 90.113 25.0845 90.2168 25.1945C90.3206 25.3045 90.4014 25.4341 90.4543 25.5758C90.5072 25.7175 90.5313 25.8683 90.525 26.0194V26.0194Z" fill="#00143A"/>
<path d="M90.6121 25.6264C90.4591 25.7784 89.6291 25.0144 88.4061 24.9264C87.1821 24.7964 86.2211 25.3864 86.1121 25.2104C86.0471 25.1454 86.2221 24.8614 86.6361 24.5994C87.192 24.2591 87.8452 24.1131 88.4931 24.1844C89.2581 24.2494 89.8911 24.5994 90.2411 24.9484C90.5681 25.2764 90.6781 25.5604 90.6121 25.6264Z" fill="#00143A"/>
<path d="M57.08 7.58241C57.255 7.60441 57.233 9.22041 55.966 11.4274C54.743 13.6114 52.1 16.1894 48.496 17.5654C44.891 18.9414 41.374 19.0074 38.949 18.8324C36.503 18.6354 35.039 18.2424 35.061 18.0454C35.083 17.8274 36.591 17.8494 38.971 17.7614C41.331 17.6524 44.629 17.4114 47.949 16.1454C51.248 14.8784 53.716 12.7154 55.071 10.8374C56.447 8.98041 56.841 7.51741 57.081 7.58241H57.08Z" fill="#00143A"/>
<path d="M49.238 13.1304C49.61 13.3054 48.605 16.2324 46.355 19.2904C44.127 22.3494 41.615 24.2064 41.352 23.9004C41.047 23.5944 42.991 21.3224 45.132 18.3954C47.294 15.4684 48.845 12.9344 49.238 13.1304Z" fill="#00143A"/>
<path d="M50.2651 61.6044C37.8791 64.1384 29.0321 75.1474 29.1851 87.7744C29.4691 113.507 33.5321 159.402 30.2551 165.628C26.8251 172.116 33.4231 181.509 33.4231 181.509L98.8691 183.759L103.239 72.3294C103.26 72.3294 82.5511 54.9854 50.2651 61.6044V61.6044Z" fill="#FCE8CF"/>
<path d="M176.462 182.58L132.554 149.026L110.862 98.6304L84.802 106.101L110.534 158.681L164.731 199.815L176.461 182.579" fill="#C49882"/>
<path d="M166.347 181.007L171.394 181.465C171.394 181.465 174.408 182.23 179.869 182.405C181.289 182.448 182.709 182.23 184.063 181.815C185.702 181.291 187.843 180.505 188.891 179.718C190.18 178.735 191.993 179.827 191.578 181.247C191.163 182.667 187.668 185.463 182.578 186.599C177.466 187.735 184.828 191.405 187.493 192.803C190.158 194.179 198.175 198.853 198.393 200.011C198.721 201.715 196.973 202.371 194.33 200.929C191.665 199.465 183.54 195.709 182.862 197.149C182.207 198.569 195.838 205.429 195.838 205.429C195.838 205.429 198.983 206.434 198.284 208.116C196.996 211.152 183.037 202.786 181.748 201.956C180.83 201.388 180.066 202.916 181.071 203.485C182.119 204.075 194.833 210.016 193.544 213.14C192.561 215.521 182.01 206.368 178.668 206.587C175.348 206.827 187.384 212.725 186.358 214.975C185.964 215.805 185.571 216.373 179.148 211.982C172.573 207.482 156.714 192.41 156.714 192.41L166.61 180.963" fill="#C49882"/>
<path d="M103.26 72.3304L124.493 130.283L98.826 142.669C98.826 142.669 73.158 91.9904 73.158 87.3604C73.136 82.7284 82.005 57.6734 103.26 72.3304Z" fill="#FCE8CF"/>
<path d="M124.493 130.283C124.515 130.327 123.903 130.698 122.746 131.332C121.588 131.965 119.906 132.839 117.765 133.953C113.505 136.16 107.476 139.218 100.464 142.713L100.005 142.953L99.809 142.473C98.4859 139.233 97.0946 136.021 95.636 132.839C93.474 128.143 91.246 123.729 89.236 119.71C87.226 115.691 85.479 112.021 84.08 108.92C82.9705 106.469 81.9363 103.985 80.979 101.47C80.323 99.6794 79.974 98.6964 80.039 98.6524C80.105 98.6304 80.563 99.5704 81.329 101.317C82.114 103.043 83.25 105.555 84.714 108.613C86.178 111.672 87.991 115.276 90.044 119.273C92.097 123.271 94.347 127.683 96.532 132.403C98.0114 135.594 99.3953 138.828 100.682 142.101L100.005 141.839C105.803 138.988 111.621 136.177 117.459 133.407C119.151 132.596 120.856 131.809 122.571 131.047C123.816 130.502 124.471 130.24 124.493 130.283V130.283Z" fill="#D6C6B4"/>
<path d="M98.826 142.67L102.277 149.223C102.277 149.223 130.828 137.077 129.583 135.81C128.338 134.565 126.044 133.866 126.044 133.866C126.044 133.866 129.364 129.126 128.338 129.126C127.311 129.126 98.826 142.669 98.826 142.669V142.67ZM91.311 183.759C91.027 183.759 90.656 169.888 90.459 152.761C90.284 135.635 90.349 121.764 90.634 121.764C90.918 121.764 91.289 135.635 91.486 152.761C91.661 169.866 91.595 183.759 91.311 183.759Z" fill="#D6C6B4"/>
<path d="M97.384 169.145C97.406 169.21 96.75 169.385 95.571 169.625C94.391 169.888 92.665 170.193 90.547 170.521C86.287 171.177 80.367 171.876 73.792 172.269C67.216 172.64 61.252 172.619 56.928 172.443C54.765 172.356 53.039 172.247 51.838 172.138C50.636 172.028 49.981 171.919 49.981 171.854C49.981 171.701 52.646 171.744 56.949 171.723C61.253 171.723 67.195 171.635 73.726 171.263C80.28 170.893 86.178 170.303 90.459 169.823C94.719 169.342 97.362 169.013 97.384 169.145V169.145ZM95.068 156.016C95.09 156.3 91.813 156.846 87.728 157.24C83.644 157.633 80.323 157.72 80.279 157.458C80.258 157.174 83.534 156.628 87.619 156.235C91.704 155.82 95.025 155.732 95.069 156.016H95.068ZM95.068 153.657C95.068 153.941 93.233 154.16 90.983 154.16C88.733 154.16 86.898 153.941 86.898 153.657C86.898 153.373 88.733 153.155 90.983 153.155C93.233 153.133 95.068 153.373 95.068 153.657Z" fill="#D6C6B4"/>
<path d="M54.6121 60.8174V54.9854C54.6121 54.9854 76.2161 55.3784 83.2501 57.8904V61.9104L54.6121 60.8174V60.8174Z" fill="#FCE8CF"/>
<path d="M102.474 72.1554C102.364 72.3294 100.704 70.9104 97.4939 69.8834C95.6213 69.2965 93.6661 69.0162 91.7039 69.0534C89.3106 69.1007 86.953 69.6434 84.7799 70.6474C82.6356 71.7051 80.7319 73.1926 79.187 75.0174C77.767 76.6984 76.7839 78.4674 76.1949 80.0414C74.9709 83.1864 75.0149 85.3494 74.8179 85.3274C74.7529 85.3274 74.6879 84.8034 74.7309 83.8204C74.7749 82.8594 74.9709 81.4394 75.5169 79.7784C76.0629 78.1184 77.0249 76.2184 78.4669 74.4054C80.055 72.4253 82.0617 70.8213 84.3429 69.7084C86.6447 68.6474 89.1484 68.0961 91.6829 68.0924C93.9979 68.1134 96.0729 68.5504 97.7119 69.1844C99.3499 69.7954 100.573 70.5164 101.338 71.1064C102.146 71.7184 102.518 72.1114 102.474 72.1554V72.1554ZM72.59 84.8904C72.59 85.0214 70.2099 85.3274 66.3199 85.5904C62.4319 85.8514 57.0589 86.0704 51.1169 86.0264C46.0423 85.9901 40.9708 85.7643 35.9129 85.3494C32.0249 85.0214 29.6429 84.6724 29.6649 84.5414C29.6869 84.3884 32.0899 84.4974 35.9569 84.6284C39.8449 84.7814 45.1969 84.9564 51.1169 85.0214C57.0369 85.0654 62.4109 84.9774 66.2769 84.8914C70.1869 84.8034 72.59 84.7374 72.59 84.8914V84.8904ZM81.1539 62.7184C81.1749 62.8484 79.6679 63.1334 77.2209 63.3084C74.7749 63.4824 71.3889 63.5264 67.6529 63.1984C63.9179 62.8714 60.5759 62.2594 58.1949 61.6694C55.8129 61.0794 54.3939 60.5554 54.4149 60.4244C54.4809 60.1184 60.3569 61.5824 67.7189 62.1944C75.1019 62.8494 81.1309 62.4124 81.1539 62.7184V62.7184Z" fill="#D6C6B4"/>
<path opacity="0.15" d="M37.0701 223.189V231.096C37.0701 231.096 64.2901 262.618 71.3671 301.567C74.2941 317.732 78.3351 331.21 78.3351 331.21L77.8331 296.259L66.2331 235.88L37.0711 223.189H37.0701Z" fill="#00143A"/>
<path d="M33.423 181.509C33.423 181.509 27.393 212.965 37.049 223.189C42.51 228.956 58.872 234.133 62.279 245.492C65.032 254.689 84.779 313.712 84.779 329.31V442.356L124.909 442.836C124.909 442.836 125.454 318.606 124.471 314.062C123.488 309.519 95.047 183.781 95.047 183.781L33.423 181.509V181.509Z" fill="#EF6C74"/>
<path d="M84.801 442.356V429.861L125.061 431.783L124.908 442.837L84.801 442.356Z" fill="#CE5964"/>
<path d="M0 425.754L31.566 439.232L35.782 429.861L2.906 417.846L0 425.754Z" fill="#BC5360"/>
<path d="M2.294 426.737L0 431.893C0 431.893 37.9 450.657 37.005 447.468C36.11 444.278 27.022 437.288 27.022 437.288L2.294 426.738V426.737ZM87.576 442.64L88.69 448.516H136.398C136.398 448.516 140.33 443.274 121.61 443.056C102.867 442.836 87.576 442.64 87.576 442.64V442.64Z" fill="#0F356D"/>
<path d="M33.423 181.509L32.833 185.201L96.117 188.456L95.068 183.781L33.423 181.509Z" fill="#A87D6A"/>
</svg>
