<svg xmlns="http://www.w3.org/2000/svg" width="14" height="14" viewBox="0 0 14 14">
    <g fill="none" fill-rule="evenodd" opacity=".297">
        <path d="M-8-8h30v30H-8z"/>
        <path fill="#000" d="M11.183.182H2.817A2.638 2.638 0 0 0 .182 2.817v8.366a2.638 2.638 0 0 0 2.635 2.635h8.366a2.638 2.638 0 0 0 2.635-2.635V2.817A2.638 2.638 0 0 0 11.183.182zm.756 1.572l.301-.002v2.312l-2.304.007-.008-2.311 2.01-.006zM5.054 5.6C5.49 4.996 6.2 4.6 7 4.6c.801 0 1.51.396 1.946 1 .285.395.454.877.454 1.4 0 1.323-1.076 2.4-2.4 2.4A2.403 2.403 0 0 1 4.6 7c0-.523.17-1.005.454-1.4zm7.436 5.583c0 .72-.586 1.307-1.307 1.307H2.817c-.72 0-1.307-.586-1.307-1.307V5.6h2.037A3.702 3.702 0 0 0 3.272 7 3.733 3.733 0 0 0 7 10.729 3.733 3.733 0 0 0 10.729 7c0-.495-.1-.967-.275-1.4h2.036v5.583z"/>
    </g>
</svg>
