<svg xmlns="http://www.w3.org/2000/svg" width="16" height="12" viewBox="0 0 16 12">
    <g fill="none" fill-rule="evenodd" opacity=".297">
        <path d="M-7-9h30v30H-7z"/>
        <path fill="#000" d="M15.5 4.063v6.152c0 .34-.131.632-.393.875a1.343 1.343 0 0 1-.946.365H1.839c-.368 0-.683-.122-.946-.365a1.151 1.151 0 0 1-.393-.875V4.063c.246.253.527.478.845.674 2.02 1.27 3.407 2.162 4.16 2.673.319.217.577.386.775.508.198.121.462.245.79.371.33.127.637.19.922.19h.017c.284 0 .591-.063.92-.19.33-.126.593-.25.791-.371.198-.122.456-.291.775-.508.948-.635 2.338-1.526 4.168-2.673.318-.201.597-.426.837-.674zM14.16.545c.363 0 .677.122.942.365.265.242.398.534.398.875 0 .408-.137.798-.41 1.17a3.84 3.84 0 0 1-1.021.953 7005.44 7005.44 0 0 0-3.918 2.518l-.356.236a8.93 8.93 0 0 1-.887.546c-.17.093-.33.163-.481.21-.15.046-.29.07-.419.07h-.016c-.129 0-.268-.024-.419-.07a2.628 2.628 0 0 1-.481-.21 8.812 8.812 0 0 1-.436-.251c-.12-.075-.27-.173-.452-.295-.18-.121-.3-.2-.355-.236-.407-.264-.956-.619-1.648-1.063l-.545-.35C2.7 4.4 2.129 4.031 1.94 3.907a4.025 4.025 0 0 1-.98-.895C.653 2.633.5 2.281.5 1.956c0-.403.116-.74.347-1.008C1.08.68 1.41.545 1.84.545z"/>
    </g>
</svg>
