<svg xmlns="http://www.w3.org/2000/svg" xmlns:xlink="http://www.w3.org/1999/xlink" width="41" height="41" viewBox="0 0 41 41">
    <defs>
        <path id="a" d="M18.375 4.444v-.888L15.75 5.333l-2.625-1.777v.888l2.625 1.778 2.625-1.778zM19.25 0H1.75C.787 0 0 .8 0 1.778v12.444C0 15.2.787 16 1.75 16h17.5c.962 0 1.741-.8 1.741-1.778L21 1.778C21 .8 20.212 0 19.25 0zM7 2.667c1.453 0 2.625 1.19 2.625 2.666S8.453 8 7 8C5.548 8 4.375 6.809 4.375 5.333c0-1.475 1.173-2.666 2.625-2.666zm5.25 10.666H1.75v-.889c0-1.777 3.5-2.755 5.25-2.755s5.25.978 5.25 2.755v.89zm7-5.333h-7V2.667h7V8z"/>
    </defs>
    <g fill="none" fill-rule="evenodd">
        <circle cx="20.5" cy="20.5" r="20.5" fill="#87C6CC"/>
        <use fill="#FFF" transform="translate(10 13)" xlink:href="#a"/>
    </g>
</svg>
