<svg xmlns="http://www.w3.org/2000/svg" xmlns:xlink="http://www.w3.org/1999/xlink" width="41" height="41" viewBox="0 0 41 41">
    <defs>
        <path id="a" d="M12.955 5.143a2.57 2.57 0 1 0 0-5.143 2.578 2.578 0 0 0-2.591 2.571 2.578 2.578 0 0 0 2.59 2.572zm-6.91 0a2.57 2.57 0 1 0 0-5.143 2.578 2.578 0 0 0-2.59 2.571 2.578 2.578 0 0 0 2.59 2.572zm0 1.714C4.033 6.857 0 7.86 0 9.857V12h12.09V9.857c0-1.997-4.032-3-6.045-3zm6.91 0c-.25 0-.536.017-.838.043 1.002.72 1.701 1.689 1.701 2.957V12H19V9.857c0-1.997-4.033-3-6.045-3z"/>
    </defs>
    <g fill="none" fill-rule="evenodd">
        <circle cx="20.5" cy="20.5" r="20.5" fill="#FCD588"/>
        <use fill="#FFF" transform="translate(11 15)" xlink:href="#a"/>
    </g>
</svg>
